<?xml version="1.0" encoding="UTF-8"?>
<svg width="30px" height="30px" viewBox="0 0 30 30" version="1.1" xmlns="http://www.w3.org/2000/svg" xmlns:xlink="http://www.w3.org/1999/xlink">
    <!-- Generator: Sketch 49.2 (51160) - http://www.bohemiancoding.com/sketch -->
    <title>linkedin-logo</title>
    <desc>Created with Sketch.</desc>
    <defs></defs>
    <g id="Page-2" stroke="none" stroke-width="1" fill="none" fill-rule="evenodd">
        <g id="tellall-website/home-copy-6" transform="translate(-555.000000, -668.000000)" fill="#1E175B" fill-rule="nonzero">
            <g id="linkedin-logo" transform="translate(555.000000, 668.000000)">
                <path d="M27.7847682,0 L2.21662679,0 C0.992320623,0 0,0.962038324 0,2.14943341 L0,27.8496599 C0,29.0371247 0.992669368,30 2.21662679,30 L27.7847682,30 C29.0087954,30 30,29.036497 30,27.8496599 L30,2.14943341 C30,0.962387066 29.0087954,0 27.7847682,0 Z M9.09514476,25.112039 L4.56235919,25.112039 L4.56235919,11.5674071 L9.09514476,11.5674071 L9.09514476,25.112039 Z M6.82920535,9.71698464 L6.79872499,9.71698464 C5.27868258,9.71698464 4.29333687,8.67745595 4.29333687,7.37602239 C4.29333687,6.04836347 5.30762846,5.0370131 6.85780248,5.0370131 C8.40811601,5.0370131 9.36172587,6.04808448 9.39185749,7.37602239 C9.39185749,8.67773495 8.40846475,9.71698464 6.82920535,9.71698464 Z M25.4345021,25.112039 L20.9031813,25.112039 L20.9031813,17.8651905 C20.9031813,16.0442716 20.2466329,14.8017753 18.6079472,14.8017753 C17.3543464,14.8017753 16.6101931,15.6400104 16.2834185,16.4493 C16.1623341,16.7383369 16.132342,17.1425981 16.132342,17.5463012 L16.132342,25.11176 L11.6018581,25.11176 C11.6018581,25.11176 11.6611449,12.8375237 11.6018581,11.5671978 L16.1330395,11.5671978 L16.1330395,13.4874383 C16.7345558,12.564738 17.8094594,11.2485178 20.215734,11.2485178 C23.1982061,11.2485178 25.4345021,13.183266 25.4345021,17.3454959 L25.4345021,25.112039 Z M16.1037448,13.5490476 C16.1148448,13.5308476 16.1303448,13.5089476 16.1457448,13.4876476 L16.1457448,13.5490476 L16.1037448,13.5490476 Z" id="LinkedIn__x28_alt_x29_"></path>
            </g>
        </g>
    </g>
</svg>