<?xml version="1.0" encoding="UTF-8"?>
<svg width="65px" height="59px" viewBox="0 0 65 59" version="1.1" xmlns="http://www.w3.org/2000/svg" xmlns:xlink="http://www.w3.org/1999/xlink">
    <!-- Generator: Sketch 49.2 (51160) - http://www.bohemiancoding.com/sketch -->
    <title>Group 14</title>
    <desc>Created with Sketch.</desc>
    <defs></defs>
    <g id="Page-2" stroke="none" stroke-width="1" fill="none" fill-rule="evenodd">
        <g id="tellall-website/home-copy-6" transform="translate(-570.000000, -2570.000000)">
            <g id="Group-4" transform="translate(0.000000, 2304.000000)">
                <g id="Group-14" transform="translate(570.000000, 266.000000)">
                    <polygon id="Path-4" fill="#1B1458" points="64.9763612 1.61813716e-16 64.9763612 58.735515 0 0"></polygon>
                    <path d="M33.9936304,20.9255308 C33.9936304,21.9155358 33.8486318,22.7455275 33.5586304,23.4155308 C33.1686284,24.3455355 32.5536346,24.8105308 31.7136304,24.8105308 C31.1636276,24.8105308 30.6836324,24.5555334 30.2736304,24.0455308 C30.20363,24.075531 30.1686304,24.3855279 30.1686304,24.9755308 C30.1686304,26.2755373 30.2336297,27.1955281 30.3636304,27.7355308 C30.3736304,27.7855311 30.42113,27.9055299 30.5061304,28.0955308 C30.5911308,28.2855318 30.6336304,28.4005306 30.6336304,28.4405308 C30.6336304,28.6005316 30.5336314,28.6805308 30.3336304,28.6805308 C30.0936292,28.6805308 29.9261309,28.6455312 29.8311304,28.5755308 C29.7361299,28.5055305 29.6536307,28.2755328 29.5836304,27.8855308 C29.5236301,27.5555292 29.4936304,27.2955318 29.4936304,27.1055308 L29.4936304,23.2955308 C29.4936304,22.9455291 29.5136302,22.4755338 29.5536304,21.8855308 C29.5936306,21.1955274 29.6186303,20.7255321 29.6286304,20.4755308 C29.6386304,20.2055295 29.6386304,19.855533 29.6286304,19.4255308 C29.6186303,18.8755281 29.6136304,18.5205316 29.6136304,18.3605308 C29.6136304,17.6705274 29.7936286,17.3255308 30.1536304,17.3255308 C30.3336313,17.3255308 30.4236304,17.3905302 30.4236304,17.5205308 C30.4236304,17.7705321 30.4036306,18.1355284 30.3636304,18.6155308 C30.3236302,19.0955332 30.3036304,19.4555296 30.3036304,19.6955308 L30.3636304,19.6955308 C30.5936315,19.3855293 30.8236292,19.0705324 31.0536304,18.7505308 C31.3236317,18.4005291 31.6586284,18.2255308 32.0586304,18.2255308 C32.7286337,18.2255308 33.2336287,18.5255278 33.5736304,19.1255308 C33.8536318,19.6055332 33.9936304,20.2055272 33.9936304,20.9255308 Z M30.1686305,23.0256118 C30.1686304,23.0255853 30.1686304,23.0255583 30.1686304,23.0255308 C30.1686304,23.0255573 30.1686304,23.0255838 30.1686305,23.0256103 L30.1686305,23.0256118 Z M30.1686305,23.0256103 C30.1687099,23.0556193 30.2137094,23.1055923 30.3036304,23.1755308 C30.3636307,23.215531 30.4236301,23.2605306 30.4836304,23.3105308 C30.6436312,23.540532 30.8061296,23.7730297 30.9711304,24.0080308 C31.1361312,24.243032 31.3836287,24.3605308 31.7136304,24.3605308 C32.2636331,24.3605308 32.678629,23.9105353 32.9586304,23.0105308 C33.1586314,22.3705276 33.2586304,21.6955344 33.2586304,20.9855308 C33.2586304,20.4555282 33.2036309,20.0005327 33.0936304,19.6205308 C32.9236295,19.060528 32.6486323,18.7805308 32.2686304,18.7805308 C31.988629,18.7805308 31.6486324,19.0255284 31.2486304,19.5155308 C30.8986286,19.945533 30.6536311,20.3855286 30.5136304,20.8355308 C30.4036298,21.1755325 30.3136307,21.6755275 30.2436304,22.3355308 C30.1936988,22.8148743 30.1686991,23.0448989 30.1686305,23.0256118 L30.1686305,23.0256103 Z M39.4986304,21.6455308 C39.4986304,22.5055351 39.3086323,23.2555276 38.9286304,23.8955308 C38.4786281,24.6655347 37.8536344,25.0505308 37.0536304,25.0505308 C36.2436263,25.0505308 35.6386324,24.735534 35.2386304,24.1055308 C34.9086287,23.5855282 34.7436304,22.8955351 34.7436304,22.0355308 C34.7436304,21.1855266 34.9336285,20.3505349 35.3136304,19.5305308 C35.7936328,18.5205258 36.4036267,18.0155308 37.1436304,18.0155308 C37.3336313,18.0155308 37.6036286,18.1255297 37.9536304,18.3455308 C38.9836355,18.985534 39.4986304,20.085523 39.4986304,21.6455308 Z M38.7786304,21.6305308 C38.7786304,20.9905276 38.6936312,20.4155334 38.5236304,19.9055308 C38.2736291,19.1955273 37.888633,18.8405308 37.3686304,18.8405308 C36.7686274,18.8405308 36.2986321,19.2355269 35.9586304,20.0255308 C35.6986291,20.6355339 35.5686304,21.2905273 35.5686304,21.9905308 C35.5686304,22.620534 35.6586295,23.1505287 35.8386304,23.5805308 C36.0986317,24.1705338 36.5036276,24.4655308 37.0536304,24.4655308 C37.6536334,24.4655308 38.1086288,24.1255342 38.4186304,23.4455308 C38.6586316,22.9155282 38.7786304,22.3105342 38.7786304,21.6305308 Z M44.7486304,20.9255308 C44.7486304,21.9155358 44.6036318,22.7455275 44.3136304,23.4155308 C43.9236284,24.3455355 43.3086346,24.8105308 42.4686304,24.8105308 C41.9186276,24.8105308 41.4386324,24.5555334 41.0286304,24.0455308 C40.95863,24.075531 40.9236304,24.3855279 40.9236304,24.9755308 C40.9236304,26.2755373 40.9886297,27.1955281 41.1186304,27.7355308 C41.1286304,27.7855311 41.17613,27.9055299 41.2611304,28.0955308 C41.3461308,28.2855318 41.3886304,28.4005306 41.3886304,28.4405308 C41.3886304,28.6005316 41.2886314,28.6805308 41.0886304,28.6805308 C40.8486292,28.6805308 40.6811309,28.6455312 40.5861304,28.5755308 C40.4911299,28.5055305 40.4086307,28.2755328 40.3386304,27.8855308 C40.2786301,27.5555292 40.2486304,27.2955318 40.2486304,27.1055308 L40.2486304,23.2955308 C40.2486304,22.9455291 40.2686302,22.4755338 40.3086304,21.8855308 C40.3486306,21.1955274 40.3736303,20.7255321 40.3836304,20.4755308 C40.3936304,20.2055295 40.3936304,19.855533 40.3836304,19.4255308 C40.3736303,18.8755281 40.3686304,18.5205316 40.3686304,18.3605308 C40.3686304,17.6705274 40.5486286,17.3255308 40.9086304,17.3255308 C41.0886313,17.3255308 41.1786304,17.3905302 41.1786304,17.5205308 C41.1786304,17.7705321 41.1586306,18.1355284 41.1186304,18.6155308 C41.0786302,19.0955332 41.0586304,19.4555296 41.0586304,19.6955308 L41.1186304,19.6955308 C41.3486315,19.3855293 41.5786292,19.0705324 41.8086304,18.7505308 C42.0786317,18.4005291 42.4136284,18.2255308 42.8136304,18.2255308 C43.4836337,18.2255308 43.9886287,18.5255278 44.3286304,19.1255308 C44.6086318,19.6055332 44.7486304,20.2055272 44.7486304,20.9255308 Z M40.9236305,23.0256118 C40.9236304,23.0255853 40.9236304,23.0255583 40.9236304,23.0255308 C40.9236304,23.0255573 40.9236304,23.0255838 40.9236305,23.0256103 L40.9236305,23.0256118 Z M40.9236305,23.0256103 C40.9237099,23.0556193 40.9687094,23.1055923 41.0586304,23.1755308 C41.1186307,23.215531 41.1786301,23.2605306 41.2386304,23.3105308 C41.3986312,23.540532 41.5611296,23.7730297 41.7261304,24.0080308 C41.8911312,24.243032 42.1386287,24.3605308 42.4686304,24.3605308 C43.0186331,24.3605308 43.433629,23.9105353 43.7136304,23.0105308 C43.9136314,22.3705276 44.0136304,21.6955344 44.0136304,20.9855308 C44.0136304,20.4555282 43.9586309,20.0005327 43.8486304,19.6205308 C43.6786295,19.060528 43.4036323,18.7805308 43.0236304,18.7805308 C42.743629,18.7805308 42.4036324,19.0255284 42.0036304,19.5155308 C41.6536286,19.945533 41.4086311,20.3855286 41.2686304,20.8355308 C41.1586298,21.1755325 41.0686307,21.6755275 40.9986304,22.3355308 C40.9486988,22.8148743 40.9236991,23.0448989 40.9236305,23.0256118 L40.9236305,23.0256103 Z M49.7886304,18.9905308 C49.7886304,19.3005324 49.7561307,19.7630278 49.6911304,20.3780308 C49.6261301,20.9930339 49.5936304,21.5255286 49.5936304,21.9755308 C49.5936304,22.1555317 49.6111302,22.4980283 49.6461304,23.0030308 C49.6811306,23.5080334 49.6986304,23.8705297 49.6986304,24.0905308 C49.6986304,24.530533 49.6486309,24.7955304 49.5486304,24.8855308 C49.4886301,24.925531 49.4036309,24.9455308 49.2936304,24.9455308 C49.0736293,24.9455308 48.9236308,24.8505318 48.8436304,24.6605308 C48.8036302,24.4705299 48.7636306,24.2855317 48.7236304,24.1055308 C48.4336289,24.535533 47.9386339,24.8055303 47.2386304,24.9155308 C46.9786291,24.955531 46.6786321,24.8405322 46.3386304,24.5705308 C46.0286288,24.3305296 45.8236309,24.090532 45.7236304,23.8505308 C45.5836297,23.5205292 45.5136304,22.8855355 45.5136304,21.9455308 L45.5136304,18.6905308 C45.4536301,18.3905293 45.6236284,18.2405308 46.0236304,18.2405308 C46.3036318,18.2405308 46.4436304,18.4005292 46.4436304,18.7205308 C46.4436304,19.2005332 46.4286305,19.825527 46.3986304,20.5955308 C46.3686302,21.5755357 46.3536304,22.2005295 46.3536304,22.4705308 C46.3436303,22.8305326 46.4236295,23.190529 46.5936304,23.5505308 C46.7936314,23.980533 47.0486288,24.1955308 47.3586304,24.1955308 C47.8686329,24.1955308 48.263629,23.8555342 48.5436304,23.1755308 C48.7436314,22.6655283 48.8436304,22.1055339 48.8436304,21.4955308 L48.8436304,19.5305308 C48.8436304,19.4505304 48.8161307,19.3380316 48.7611304,19.1930308 C48.7061301,19.0480301 48.6786304,18.9305313 48.6786304,18.8405308 C48.6786304,18.7905306 48.6836303,18.7355311 48.6936304,18.6755308 C48.8336311,18.5455302 48.9736297,18.4755309 49.1136304,18.4655308 C49.5636326,18.4255306 49.7886304,18.6005289 49.7886304,18.9905308 Z M51.8136304,24.4505308 C51.8136304,24.7105321 51.6736318,24.8405308 51.3936304,24.8405308 C50.9536282,24.8405308 50.7386303,23.9355399 50.7486304,22.1255308 L50.7936304,15.3905308 C50.7936304,15.2805303 50.7786305,15.1230319 50.7486304,14.9180308 C50.7186302,14.7130298 50.7036304,14.5605313 50.7036304,14.4605308 C50.8936313,14.3205301 51.0536297,14.2505308 51.1836304,14.2505308 C51.3236311,14.2505308 51.4636297,14.3005303 51.6036304,14.4005308 C51.7436311,14.5005313 51.8136304,14.6205301 51.8136304,14.7605308 C51.8136304,14.8605313 51.7886306,14.99053 51.7386304,15.1505308 C51.6786301,15.3505318 51.6436304,15.4755306 51.6336304,15.5255308 C51.5136298,16.2055342 51.4536304,17.1555247 51.4536304,18.3755308 C51.4536304,20.3455407 51.4486304,21.2955312 51.4386304,21.2255308 C51.4686305,22.455537 51.5486297,23.3805277 51.6786304,24.0005308 C51.6786304,24.030531 51.7011302,24.0980303 51.7461304,24.2030308 C51.7911306,24.3080314 51.8136304,24.3905305 51.8136304,24.4505308 Z M57.1086304,25.0355308 C57.1086304,25.1755315 56.9986315,25.2455308 56.7786304,25.2455308 C56.5386292,25.2455308 56.3936306,25.1455318 56.3436304,24.9455308 C56.3336303,24.9155307 56.3286304,24.7205326 56.3286304,24.3605308 C56.3286304,24.2605303 56.3136305,24.1805311 56.2836304,24.1205308 C55.7236276,24.5305329 55.1186336,24.7355308 54.4686304,24.7355308 C54.0186281,24.7355308 53.5836325,24.6105321 53.1636304,24.3605308 C52.683628,24.0805294 52.4436304,23.7305329 52.4436304,23.3105308 C52.4436304,22.9005288 52.7286275,22.5005328 53.2986304,22.1105308 C53.818633,21.750529 54.2986282,21.5705308 54.7386304,21.5705308 L56.2236304,21.5705308 C56.2836307,21.5105305 56.3136304,21.4055316 56.3136304,21.2555308 C56.3136304,20.5855275 56.2586309,20.0805325 56.1486304,19.7405308 C55.9686295,19.170528 55.613633,18.8855308 55.0836304,18.8855308 C54.7036285,18.8855308 54.353632,19.1255284 54.0336304,19.6055308 C53.7436289,20.045533 53.5986304,20.4655288 53.5986304,20.8655308 L53.5986304,21.0305308 C53.5986304,21.1105312 53.5586308,21.1505308 53.4786304,21.1505308 C53.3786299,21.1505308 53.268631,21.0905314 53.1486304,20.9705308 C53.0286298,20.8505302 52.9686304,20.7455313 52.9686304,20.6555308 C52.9686304,20.3755294 53.0536295,20.023033 53.2236304,19.5980308 C53.3936312,19.1730287 53.5786294,18.8505319 53.7786304,18.6305308 C54.0286316,18.3605295 54.3386285,18.2255308 54.7086304,18.2255308 C55.2786332,18.2255308 55.803628,18.405529 56.2836304,18.7655308 C56.7936329,19.1555328 57.0536303,19.6255281 57.0636304,20.1755308 L57.1086304,25.0355308 Z M56.3136304,22.6505308 C56.3136304,22.2505288 56.0036335,22.0505308 55.3836304,22.0505308 C54.8936279,22.0505308 54.4636322,22.13553 54.0936304,22.3055308 C53.623628,22.5255319 53.3886304,22.8555286 53.3886304,23.2955308 C53.3886304,23.5655322 53.5136291,23.7755301 53.7636304,23.9255308 C53.9736314,24.0555315 54.2236289,24.1205308 54.5136304,24.1205308 C54.9436325,24.1205308 55.3511285,23.9805322 55.7361304,23.7005308 C56.1211323,23.4205294 56.3136304,23.0705329 56.3136304,22.6505308 Z M61.5036304,19.2605308 C61.5036304,19.300531 61.4986304,19.3855302 61.4886304,19.5155308 C61.3586297,19.7155318 61.233631,19.8155308 61.1136304,19.8155308 C61.03363,19.8155308 60.9636307,19.7655313 60.9036304,19.6655308 C60.8736302,19.0355277 60.6136328,18.7205308 60.1236304,18.7205308 C59.8036288,18.7205308 59.4886319,19.3105249 59.1786304,20.4905308 C59.0586298,20.920533 58.9986304,21.4955272 58.9986304,22.2155308 C58.9986304,23.1355354 59.0236301,23.7005298 59.0736304,23.9105308 C59.0836304,23.940531 59.1086302,24.0030304 59.1486304,24.0980308 C59.1886306,24.1930313 59.2086304,24.2655306 59.2086304,24.3155308 C59.2086304,24.5355319 59.0586319,24.6455308 58.7586304,24.6455308 C58.4186287,24.6455308 58.2486304,24.4705326 58.2486304,24.1205308 C58.2486304,24.0705306 58.2611303,23.9980313 58.2861304,23.9030308 C58.3111305,23.8080304 58.3236304,23.7355311 58.3236304,23.6855308 C58.3236304,23.1355281 58.2986306,22.3105363 58.2486304,21.2105308 C58.1986301,20.1105253 58.1736304,19.2855336 58.1736304,18.7355308 C58.1736304,18.5355298 58.20863,18.4130311 58.2786304,18.3680308 C58.3486307,18.3230306 58.4836294,18.3005308 58.6836304,18.3005308 C58.9336316,18.3005308 59.0786302,18.3905299 59.1186304,18.5705308 C59.1286304,18.7705318 59.1386303,18.9655299 59.1486304,19.1555308 C59.4086317,18.7555288 59.5586302,18.5305311 59.5986304,18.4805308 C59.8186315,18.2305296 60.0486292,18.1055308 60.2886304,18.1055308 C60.4686313,18.1055308 60.6486295,18.1605303 60.8286304,18.2705308 C60.9286309,18.3305311 61.0661295,18.4855296 61.2411304,18.7355308 C61.4161313,18.9855321 61.5036304,19.1605303 61.5036304,19.2605308 Z" id="popular" fill="#FFFFFF" transform="translate(45.498630, 21.465531) rotate(42.000000) translate(-45.498630, -21.465531) "></path>
                </g>
            </g>
        </g>
    </g>
</svg>