<?xml version="1.0" encoding="UTF-8"?>
<svg width="30px" height="30px" viewBox="0 0 30 30" version="1.1" xmlns="http://www.w3.org/2000/svg" xmlns:xlink="http://www.w3.org/1999/xlink">
    <!-- Generator: Sketch 49.2 (51160) - http://www.bohemiancoding.com/sketch -->
    <title>facebook-logo</title>
    <desc>Created with Sketch.</desc>
    <defs></defs>
    <g id="Page-2" stroke="none" stroke-width="1" fill="none" fill-rule="evenodd">
        <g id="tellall-website/home-copy-6" transform="translate(-625.000000, -668.000000)" fill="#1E175B" fill-rule="nonzero">
            <g id="facebook-logo" transform="translate(625.000000, 668.000000)">
                <path d="M30,5.00033333 C30,2.373 27.628,0 25,0 L5,0 C2.372,0 0,2.373 0,5.00033333 L0,24.9996667 C0,27.627 2.372,30 5.00033333,30 L15,30 L15,18.6666667 L11.3333333,18.6666667 L11.3333333,13.6666667 L15,13.6666667 L15,11.7186667 C15,8.359 17.5226667,5.33333333 20.625,5.33333333 L24.6666667,5.33333333 L24.6666667,10.3333333 L20.625,10.3333333 C20.1826667,10.3333333 19.6666667,10.8703333 19.6666667,11.6746667 L19.6666667,13.6666667 L24.6666667,13.6666667 L24.6666667,18.6666667 L19.6666667,18.6666667 L19.6666667,30 L25,30 C27.628,30 30,27.627 30,24.9996667 L30,5.00033333 Z" id="Facebook__x28_alt_x29_"></path>
            </g>
        </g>
    </g>
</svg>