<?xml version="1.0" encoding="UTF-8"?>
<svg width="332px" height="240px" viewBox="0 0 332 240" version="1.1" xmlns="http://www.w3.org/2000/svg" xmlns:xlink="http://www.w3.org/1999/xlink">
    <!-- Generator: Sketch 49.2 (51160) - http://www.bohemiancoding.com/sketch -->
    <title>Group 13</title>
    <desc>Created with Sketch.</desc>
    <defs></defs>
    <g id="Page-2" stroke="none" stroke-width="1" fill="none" fill-rule="evenodd">
        <g id="tellall-website/home-copy-6" transform="translate(-801.000000, -1765.000000)">
            <g id="Group-13" transform="translate(803.000000, 1767.000000)">
                <g id="Group-10">
                    <g id="facebook-logo" opacity="0.786492307" transform="translate(111.000000, 97.000000)" fill="#1E175B" fill-rule="nonzero">
                        <path d="M110,5.00033333 C110,2.373 107.628,0 105,0 L5,0 C2.372,0 0,2.373 0,5.00033333 L0,24.9996667 C0,27.627 2.372,30 5.00033333,30 L55,30 L55,18.6666667 L51.3333333,18.6666667 L51.3333333,13.6666667 L55,13.6666667 L55,11.7186667 C55,8.359 57.5226667,5.33333333 60.625,5.33333333 L64.6666667,5.33333333 L64.6666667,10.3333333 L60.625,10.3333333 C60.1826667,10.3333333 59.6666667,10.8703333 59.6666667,11.6746667 L59.6666667,13.6666667 L64.6666667,13.6666667 L64.6666667,18.6666667 L59.6666667,18.6666667 L59.6666667,30 L105,30 C107.628,30 110,27.627 110,24.9996667 L110,5.00033333 Z" id="Facebook__x28_alt_x29_"></path>
                    </g>
                    <text id="IMPORT-ALL-FROM" font-family="Roboto-Medium, Roboto" font-size="14" font-weight="400" letter-spacing="0.5" fill="#1F1760">
                        <tspan x="101.204102" y="75">IMPORT ALL FROM </tspan>
                    </text>
                    <polyline id="Path-10-Copy-2" stroke="#676198" stroke-width="3" stroke-linecap="round" stroke-linejoin="round" points="0 162.726846 0 0 328.175215 0 328.175215 236.439241"></polyline>
                </g>
            </g>
        </g>
    </g>
</svg>