<?xml version="1.0" encoding="UTF-8"?>
<svg width="30px" height="30px" viewBox="0 0 30 30" version="1.1" xmlns="http://www.w3.org/2000/svg" xmlns:xlink="http://www.w3.org/1999/xlink">
    <!-- Generator: Sketch 49.2 (51160) - http://www.bohemiancoding.com/sketch -->
    <title>instagram-social-network-logo-of-photo-camera</title>
    <desc>Created with Sketch.</desc>
    <defs></defs>
    <g id="Page-2" stroke="none" stroke-width="1" fill="none" fill-rule="evenodd">
        <g id="tellall-website/home-copy-6" transform="translate(-695.000000, -668.000000)" fill="#1E175B" fill-rule="nonzero">
            <g id="instagram-social-network-logo-of-photo-camera" transform="translate(695.000000, 668.000000)">
                <path d="M3.85064788,0 L26.1496601,0 C28.2673471,0 30,1.56784229 30,3.85030032 L30,26.1496997 C30,28.4321577 28.2673471,30 26.1496601,30 L3.85064788,30 C1.73234491,30 0,28.4321577 0,26.1496997 L0,3.85030032 C0,1.56784229 1.73234491,0 3.85064788,0 Z M21.853913,3.33312798 C21.1109514,3.33312798 20.5038298,3.94055136 20.5038298,4.68381334 L20.5038298,7.91652549 C20.5038298,8.65947944 21.1109514,9.26721084 21.853913,9.26721084 L25.2446763,9.26721084 C25.9876378,9.26721084 26.5953755,8.65947944 26.5953755,7.91652549 L26.5953755,4.68381334 C26.5953755,3.94055136 25.9876378,3.33312798 25.2446763,3.33312798 L21.853913,3.33312798 Z M26.6095447,12.6868936 L23.9691357,12.6868936 C24.2189457,13.5025412 24.3541697,14.3665486 24.3541697,15.2604343 C24.3541697,20.2504235 20.1785531,24.295395 15.0286465,24.295395 C9.87904799,24.295395 5.70404748,20.2504235 5.70404748,15.2604343 C5.70404748,14.3659325 5.83896339,13.5022332 6.08908146,12.6868936 L3.33377826,12.6868936 L3.33377826,25.35931 C3.33377826,26.0150932 3.87036162,26.5519791 4.52645954,26.5519791 L25.4174795,26.5519791 C26.0735774,26.5519791 26.6101608,26.0154012 26.6101608,25.35931 L26.6101608,12.6868936 L26.6095447,12.6868936 Z M15.0283385,9.09687356 C11.7010288,9.09687356 9.00332669,11.7104574 9.00332669,14.9348529 C9.00332669,18.1592484 11.7010288,20.7728323 15.0283385,20.7728323 C18.3559562,20.7728323 21.0539664,18.1592484 21.0539664,14.9348529 C21.0539664,11.7104574 18.3562642,9.09687356 15.0283385,9.09687356 Z" id="Shape"></path>
            </g>
        </g>
    </g>
</svg>