<?xml version="1.0" encoding="UTF-8"?>
<svg width="58px" height="16px" viewBox="0 0 58 16" version="1.1" xmlns="http://www.w3.org/2000/svg" xmlns:xlink="http://www.w3.org/1999/xlink">
    <!-- Generator: Sketch 49.2 (51160) - http://www.bohemiancoding.com/sketch -->
    <title>TellAll Copy</title>
    <desc>Created with Sketch.</desc>
    <defs></defs>
    <g id="Page-2" stroke="none" stroke-width="1" fill="none" fill-rule="evenodd">
        <path d="M6.26933327,15.2284128 L4.89412468,15.2284128 L4.89412468,1.89091181 L0,1.89091181 L0,0.637045155 L11.163458,0.637045155 L11.163458,1.89091181 L6.26933327,1.89091181 L6.26933327,15.2284128 Z M16.6960723,5.32893328 C14.7141541,5.32893328 13.3389455,6.79514832 13.2176036,9.03997411 L20.00264,9.03997411 C19.9723046,6.79514832 18.6678788,5.32893328 16.6960723,5.32893328 Z M19.8711863,12.5386665 L21.2160594,12.5386665 C20.6801325,14.3082364 19.0015691,15.4104257 16.716296,15.4104257 C13.7231949,15.4104257 11.842395,13.2262708 11.842395,9.78824937 C11.842395,6.37045155 13.7434186,4.15596125 16.7061842,4.15596125 C19.6082788,4.15596125 21.3879605,6.21877413 21.3879605,9.5455655 L21.3879605,10.1320515 L13.2074917,10.1320515 L13.2074917,10.1927225 C13.2782745,12.6498967 14.6433713,14.2273418 16.7466315,14.2273418 C18.2937411,14.2273418 19.4060422,13.6105203 19.8711863,12.5386665 Z M25.1004458,15.2284128 L25.1004458,0 L26.4250953,0 L26.4250953,15.2284128 L25.1004458,15.2284128 Z M30.7847376,15.2284128 L30.7847376,0 L32.1093871,0 L32.1093871,15.2284128 L30.7847376,15.2284128 Z M46.2370551,15.2284128 L44.6191627,10.7589848 L38.491395,10.7589848 L36.8735025,15.2284128 L35.4072875,15.2284128 L40.8676745,0.637045155 L42.2428831,0.637045155 L47.6931583,15.2284128 L46.2370551,15.2284128 Z M41.484496,2.44706234 L38.9059799,9.56578916 L44.2045777,9.56578916 L41.6159498,2.44706234 L41.484496,2.44706234 Z M50.9910588,15.2284128 L50.9910588,0 L52.3157082,0 L52.3157082,15.2284128 L50.9910588,15.2284128 Z M56.6753506,15.2284128 L56.6753506,0 L58,0 L58,15.2284128 L56.6753506,15.2284128 Z" id="TellAll-Copy" fill="#000000"></path>
    </g>
</svg>