<?xml version="1.0" encoding="UTF-8"?>
<svg width="102px" height="28px" viewBox="0 0 102 28" version="1.1" xmlns="http://www.w3.org/2000/svg" xmlns:xlink="http://www.w3.org/1999/xlink">
    <!-- Generator: Sketch 49.2 (51160) - http://www.bohemiancoding.com/sketch -->
    <title>TellAll</title>
    <desc>Created with Sketch.</desc>
    <defs></defs>
    <g id="Page-2" stroke="none" stroke-width="1" fill="none" fill-rule="evenodd">
        <g id="tellall-website/home-copy-6" transform="translate(-58.000000, -35.000000)" fill="#000000">
            <g id="header">
                <g id="Group-6">
                    <path d="M69.4453125,62 L67.0546875,62 L67.0546875,38.8144531 L58.546875,38.8144531 L58.546875,36.6347656 L77.953125,36.6347656 L77.953125,38.8144531 L69.4453125,38.8144531 L69.4453125,62 Z M87.5708705,44.7910156 C84.125558,44.7910156 81.734933,47.3398438 81.5239955,51.2421875 L93.3189174,51.2421875 C93.266183,47.3398438 90.9986049,44.7910156 87.5708705,44.7910156 Z M93.0904018,57.3242188 L95.4282924,57.3242188 C94.4966518,60.4003906 91.578683,62.3164063 87.6060268,62.3164063 C82.4029018,62.3164063 79.1333705,58.5195313 79.1333705,52.5429688 C79.1333705,46.6015625 82.438058,42.7519531 87.5884486,42.7519531 C92.6333705,42.7519531 95.7271205,46.3378906 95.7271205,52.1210938 L95.7271205,53.140625 L81.5064174,53.140625 L81.5064174,53.2460938 C81.6294643,57.5175781 84.0025111,60.2597656 87.6587611,60.2597656 C90.3482143,60.2597656 92.281808,59.1875 93.0904018,57.3242188 Z M102.180804,62 L102.180804,35.5273438 L104.483538,35.5273438 L104.483538,62 L102.180804,62 Z M112.062221,62 L112.062221,35.5273438 L114.364955,35.5273438 L114.364955,62 L112.062221,62 Z M138.924107,62 L136.111607,54.2304688 L125.459263,54.2304688 L122.646763,62 L120.097935,62 L129.590123,36.6347656 L131.980748,36.6347656 L141.455357,62 L138.924107,62 Z M130.662388,39.78125 L126.179966,52.15625 L135.390904,52.15625 L130.890904,39.78125 L130.662388,39.78125 Z M147.188337,62 L147.188337,35.5273438 L149.491071,35.5273438 L149.491071,62 L147.188337,62 Z M157.069754,62 L157.069754,35.5273438 L159.372489,35.5273438 L159.372489,62 L157.069754,62 Z" id="TellAll"></path>
                </g>
            </g>
        </g>
    </g>
</svg>