<?xml version="1.0" encoding="UTF-8"?>
<svg width="40px" height="34px" viewBox="0 0 40 34" version="1.1" xmlns="http://www.w3.org/2000/svg" xmlns:xlink="http://www.w3.org/1999/xlink">
    <!-- Generator: Sketch 49.2 (51160) - http://www.bohemiancoding.com/sketch -->
    <title>twitter-logo-silhouette</title>
    <desc>Created with Sketch.</desc>
    <defs></defs>
    <g id="Page-2" stroke="none" stroke-width="1" fill="none" fill-rule="evenodd">
        <g id="tellall-website/home-copy-6" transform="translate(-620.000000, -4072.000000)" fill="#4A4A4A" fill-rule="nonzero">
            <g id="twitter-logo-silhouette" transform="translate(620.000000, 4072.000000)">
                <path d="M40,4.022735 C38.5277754,4.70537638 36.9480996,5.16833595 35.2883583,5.37502288 C36.983067,4.3130679 38.280324,2.62865833 38.8951616,0.627720928 C37.3054858,1.6111595 35.550777,2.32526216 33.6811008,2.71237269 C32.1839088,1.04102639 30.0542975,0 27.6922021,0 C23.1605607,0 19.486241,3.84491037 19.486241,8.58434701 C19.486241,9.25652409 19.5587248,9.91303893 19.698725,10.5408283 C12.880021,10.1824432 6.8336713,6.7639016 2.78693266,1.56930232 C2.07954588,2.83527687 1.67712692,4.31040053 1.67712692,5.88503759 C1.67712692,8.86421561 3.12686785,11.4928739 5.32647929,13.0307834 C3.98170585,12.9837282 2.71693254,12.5966177 1.60967583,11.9531661 L1.60967583,12.0604081 C1.60967583,16.2191789 4.43915758,19.690042 8.19092842,20.4799937 C7.50354167,20.673549 6.77870389,20.7807909 6.02883338,20.7807909 C5.49896323,20.7807909 4.9865441,20.7258705 4.48412497,20.6212275 C5.52889792,24.0345712 8.55838,26.5167294 12.1477323,26.5847815 C9.34073422,28.8865161 5.80138203,30.2544662 1.95712738,30.2544662 C1.29477336,30.2544662 0.642353991,30.2126091 0,30.13676 C3.631836,32.5771294 7.94354239,34 12.5776676,34 C27.6723328,34 35.9233267,20.9168268 35.9233267,9.57045295 L35.8958103,8.45884386 C37.5079698,7.25558669 38.9026779,5.7438038 40,4.022735 Z" id="Shape"></path>
            </g>
        </g>
    </g>
</svg>